<svg width="90" height="83" viewBox="0 0 90 83" fill="none" xmlns="http://www.w3.org/2000/svg">
<path fill-rule="evenodd" clip-rule="evenodd" d="M80.8424 63.2382C82.0459 65.658 88.7142 77.5903 89.3308 79.7739C89.6401 80.8693 88.1361 82.4392 86.3671 82.4885H44.604H2.96212C-2.21773 82.4885 0.516245 76.1545 2.74893 75.6736C14.4611 71.8391 26.7152 68.7497 39.1222 66.3977C52.0407 63.949 64.8548 62.4373 77.6965 61.5688L77.6963 61.5658C79.2756 61.459 80.3533 62.2548 80.8424 63.2382Z" fill="#E74114"/>
<path fill-rule="evenodd" clip-rule="evenodd" d="M80.8424 63.2382C82.0459 65.658 88.7142 77.5903 89.3308 79.7739C89.6401 80.8693 88.1361 82.4392 86.3671 82.4885H44.604H2.96212C-2.21773 82.4885 0.516245 76.1545 2.74893 75.6736C14.4611 71.8391 26.7152 68.7497 39.1222 66.3977C52.0407 63.949 64.8548 62.4373 77.6965 61.5688L77.6963 61.5658C79.2756 61.459 80.3533 62.2548 80.8424 63.2382Z" fill="#E74114"/>
<path fill-rule="evenodd" clip-rule="evenodd" d="M28.2949 27.7008C32.9254 18.6798 37.7437 9.86513 42.5799 0.937055L42.5759 0.93089C43.0589 0.0638459 44.596 -0.254387 45.4789 0.219919C45.845 0.41649 46.1147 0.718565 46.2709 1.0666L54.1932 14.0589L54.199 14.0559C54.682 14.9229 54.3579 16.0106 53.4751 16.4849C53.3637 16.5447 53.2486 16.5917 53.1321 16.6269C43.714 20.0319 37.1282 22.1883 28.2949 27.7008Z" fill="#F49200"/>
<path fill-rule="evenodd" clip-rule="evenodd" d="M28.2949 27.7008C32.9254 18.6798 37.7437 9.86513 42.5799 0.937055L42.5759 0.93089C43.0589 0.0638459 44.596 -0.254387 45.4789 0.219919C45.845 0.41649 46.1147 0.718565 46.2709 1.0666L54.1932 14.0589L54.199 14.0559C54.682 14.9229 54.3579 16.0106 53.4751 16.4849C53.3637 16.5447 53.2486 16.5917 53.1321 16.6269C43.714 20.0319 37.1282 22.1883 28.2949 27.7008Z" fill="#F49200"/>
<path fill-rule="evenodd" clip-rule="evenodd" d="M37.065 47.3408C34.5934 52.1378 32.2252 57.1742 29.2095 61.994C28.6365 62.9099 27.3299 64.9384 26.1218 65.1579C19.0312 66.8708 12.0608 68.834 4.98877 70.515C5.3912 68.6641 9.92088 60.4939 11.1729 58.7031C12.3354 57.0401 13.1021 56.4271 14.3126 55.8661C20.5856 52.9588 30.1257 48.9335 37.065 47.3408ZM68.2591 41.9611C71.2453 46.1463 73.9997 50.6795 76.5823 55.4713L76.5882 55.4683C77.0712 56.3353 76.7471 57.423 75.8642 57.8973C75.6013 58.0384 75.3185 58.1093 75.0384 58.1165C72.5963 58.3043 69.5473 58.5067 67.3252 58.7235C65.0989 58.9405 62.3296 58.9086 59.8772 59.1998L59.8773 59.2013C59.0598 59.2984 58.0167 58.8476 57.7026 58.143L50.6516 45.8884L50.6457 45.8914C50.1628 45.0244 50.2005 44.0799 51.0834 43.6056C51.2733 43.5035 51.4733 43.4382 51.6758 43.4072C53.9437 42.8995 57.3133 42.4323 59.4925 42.0064C61.708 41.5732 63.9728 41.3066 66.2862 40.9206L66.2857 40.9171C67.1266 40.7769 67.9309 41.2274 68.2591 41.9611Z" fill="#EA5A0E"/>
<path fill-rule="evenodd" clip-rule="evenodd" d="M37.065 47.3408C34.5934 52.1378 32.2252 57.1742 29.2095 61.994C28.6365 62.9099 27.3299 64.9384 26.1218 65.1579C19.0312 66.8708 12.0608 68.834 4.98877 70.515C5.3912 68.6641 9.92088 60.4939 11.1729 58.7031C12.3354 57.0401 13.1021 56.4271 14.3126 55.8661C20.5856 52.9588 30.1257 48.9335 37.065 47.3408ZM68.2591 41.9611C71.2453 46.1463 73.9997 50.6795 76.5823 55.4713L76.5882 55.4683C77.0712 56.3353 76.7471 57.423 75.8642 57.8973C75.6013 58.0384 75.3185 58.1093 75.0384 58.1165C72.5963 58.3043 69.5473 58.5067 67.3252 58.7235C65.0989 58.9405 62.3296 58.9086 59.8772 59.1998L59.8773 59.2013C59.0598 59.2984 58.0167 58.8476 57.7026 58.143L50.6516 45.8884L50.6457 45.8914C50.1628 45.0244 50.2005 44.0799 51.0834 43.6056C51.2733 43.5035 51.4733 43.4382 51.6758 43.4072C53.9437 42.8995 57.3133 42.4323 59.4925 42.0064C61.708 41.5732 63.9728 41.3066 66.2862 40.9206L66.2857 40.9171C67.1266 40.7769 67.9309 41.2274 68.2591 41.9611Z" fill="#EA5A0E"/>
<path fill-rule="evenodd" clip-rule="evenodd" d="M57.6537 21.2424L65.4966 35.0609L65.5025 35.0579C66.076 36.2372 65.8148 36.9627 64.0678 37.27C47.7488 39.4835 28.6088 44.6234 15.2168 50.9684C16.3339 48.2066 22.8839 36.1441 25.9111 33.8135C31.9123 29.1937 51.2489 20.9518 55.3678 20.2882L55.3668 20.2832C56.2735 19.9607 57.2705 20.3886 57.6537 21.2424Z" fill="#EE7105"/>
<path fill-rule="evenodd" clip-rule="evenodd" d="M57.6537 21.2424L65.4966 35.0609L65.5025 35.0579C66.076 36.2372 65.8148 36.9627 64.0678 37.27C47.7488 39.4835 28.6088 44.6234 15.2168 50.9684C16.3339 48.2066 22.8839 36.1441 25.9111 33.8135C31.9123 29.1937 51.2489 20.9518 55.3678 20.2882L55.3668 20.2832C56.2735 19.9607 57.2705 20.3886 57.6537 21.2424Z" fill="#EE7105"/>
</svg>
